<svg width="57" height="57" viewBox="0 0 57 57" fill="none" xmlns="http://www.w3.org/2000/svg">
<path d="M28.5 14.8333L35.2681 9.1933H44.129V-0.000244141H22.0645V9.1933H28.5V14.8333ZM23.9032 7.35459V1.83847H42.2903V7.35459H34.6028L30.3387 10.9081V7.35459H23.9032Z" fill="#EBC26E"/>
<path d="M25.7419 3.67725H27.5806V5.51596H25.7419V3.67725Z" fill="#EBC26E"/>
<path d="M29.4193 3.67725H36.7742V5.51596H29.4193V3.67725Z" fill="#EBC26E"/>
<path d="M38.6129 3.67725H40.4516V5.51596H38.6129V3.67725Z" fill="#EBC26E"/>
<path d="M46.7996 55.161L46.0562 47.7186C49.1258 47.2334 51.4839 44.5754 51.4839 41.3707V29.4191H47.8065V28.1487C47.8065 26.8989 47.1196 25.7767 46.0153 25.2012C47.1133 24.1925 47.8065 22.7502 47.8065 21.1449V19.3062C47.8065 16.2639 45.3325 13.79 42.2903 13.79C39.2481 13.79 36.7742 16.2639 36.7742 19.3062V21.1449C36.7742 23.525 38.2919 25.5513 40.4085 26.3234L35.4742 31.2578H30.3185C30.2157 29.7252 29.163 28.3893 27.6718 27.9628L23.9032 26.8873V25.2452C25.0286 24.2347 25.7419 22.7739 25.7419 21.1449V19.3062C25.7419 16.2639 23.268 13.79 20.2258 13.79C17.1836 13.79 14.7097 16.2639 14.7097 19.3062V21.1449C14.7097 22.7731 15.423 24.2338 16.5484 25.2452V26.8882L12.7798 27.9637C11.2096 28.4113 10.1129 29.8657 10.1129 31.4997V34.9352H6.43548V40.4513H8.27419V55.161H0V56.9997H57V55.161H46.7996ZM38.6129 40.4513V36.2352L45.1274 29.7207C45.5983 29.2498 45.8784 28.6173 45.9413 27.9574C45.9493 28.0216 45.9677 28.0822 45.9677 28.1487V39.532C45.9677 41.0524 44.7301 42.29 43.2097 42.29H35.8548V40.4513H38.6129ZM35.8548 47.8062H40.5391L41.2745 55.161H35.8548V47.8062ZM42.3868 47.8062H44.2166L44.9519 55.161H43.1221L42.3868 47.8062ZM47.8065 39.532V31.2578H49.6452V41.3707C49.6452 43.9052 47.5829 45.9675 45.0484 45.9675H35.8548V44.1287H43.2097C45.7442 44.1287 47.8065 42.0665 47.8065 39.532ZM38.6129 21.1449V19.3062C38.6129 17.278 40.2622 15.6287 42.2903 15.6287C44.3185 15.6287 45.9677 17.278 45.9677 19.3062V21.1449C45.9677 23.173 44.3185 24.8223 42.2903 24.8223C40.2622 24.8223 38.6129 23.173 38.6129 21.1449ZM36.2355 33.0965L42.3693 26.9627C42.5615 26.7705 42.8272 26.661 43.0984 26.661C43.6667 26.661 44.129 27.1234 44.129 27.6917C44.129 27.9628 44.0195 28.2286 43.8274 28.4207L37.3129 34.9352H27.5806C27.0734 34.9352 26.6613 34.5231 26.6613 34.0158C26.6613 33.5086 27.0734 33.0965 27.5806 33.0965H36.2355ZM16.5484 19.3062C16.5484 17.278 18.1977 15.6287 20.2258 15.6287C22.254 15.6287 23.9032 17.278 23.9032 19.3062V21.1449C23.9032 23.173 22.254 24.8223 20.2258 24.8223C18.1977 24.8223 16.5484 23.173 16.5484 21.1449V19.3062ZM20.2258 26.661C20.8713 26.661 21.4881 26.5434 22.0645 26.3391V27.3267C21.8365 27.6787 21.2031 28.4997 20.2258 28.4997C19.2485 28.4997 18.6151 27.6787 18.3871 27.3267V26.3391C18.9635 26.5434 19.5803 26.661 20.2258 26.661ZM11.9516 31.4997C11.9516 30.6823 12.5006 29.956 13.2849 29.7315L17.0723 28.6497C17.6056 29.3446 18.6434 30.3384 20.2258 30.3384C21.8082 30.3384 22.8461 29.3446 23.3794 28.6488L27.1668 29.7306C27.8711 29.9322 28.3622 30.5445 28.4605 31.2569H27.5806C26.0602 31.2569 24.8226 32.4945 24.8226 34.0149C24.8226 34.3386 24.8886 34.6457 24.9918 34.9343H11.9516V31.4997ZM8.27419 36.7739H36.7742V38.6126H8.27419V36.7739ZM10.1129 44.1287H12.871V42.29H10.1129V40.4513H34.0161V42.29H14.7097V44.1287H34.0161V55.161H31.8264L29.9877 51.4836H14.1414L12.3027 55.161H10.1129V44.1287ZM29.7704 55.161H14.3586L15.278 53.3223H28.851L29.7704 55.161Z" fill="#EBC26E"/>
</svg>
