<svg width="57" height="57" viewBox="0 0 57 57" fill="none" xmlns="http://www.w3.org/2000/svg">
<path d="M56.1634 55.327H50.7534V22.2536C50.7534 21.7916 50.3789 21.417 49.9167 21.417H40.9931C40.531 21.417 40.1565 21.7916 40.1565 22.2536V55.327H33.7984V32.0696C33.7984 31.6076 33.4239 31.233 32.9618 31.233H24.0382C23.5761 31.233 23.2016 31.6076 23.2016 32.0696V55.327H16.8435V36.5314C16.8435 36.0694 16.469 35.6948 16.0069 35.6948H7.08325C6.62113 35.6948 6.24662 36.0694 6.24662 36.5314V55.3269H0.836631C0.374508 55.3269 0 55.7015 0 56.1635C0 56.6255 0.374508 57.0001 0.836631 57.0001H56.1634C56.6255 57.0001 57 56.6255 57 56.1635C56.9999 55.7015 56.6255 55.327 56.1634 55.327ZM15.1702 55.327H7.91977V37.3681H15.1702V55.327ZM32.1253 55.327H24.8748V32.9063H32.1253V55.327ZM49.0802 55.327H41.8298V23.0903H49.0802V55.327Z" fill="#EBC26E"/>
<path d="M54.329 0.656326C53.7651 0.158578 53.0146 -0.0733185 52.2687 0.0204197L45.1298 0.912826C43.7126 1.08995 42.6766 2.42021 42.8539 3.83886C43.0331 5.27243 44.3446 6.29409 45.7801 6.11485L46.3626 6.04216C37.6005 16.2015 27.1838 21.452 19.823 24.0907C10.645 27.381 3.50145 27.6624 3.43187 27.6647C1.98872 27.7098 0.85006 28.9208 0.8937 30.3641C0.936896 31.7896 2.08725 32.9061 3.51281 32.9061C3.5393 32.9061 3.56591 32.9057 3.59318 32.9049C3.9108 32.8953 11.4835 32.6279 21.4601 29.0729C27.0686 27.0744 32.346 24.4213 37.1455 21.1876C37.5287 20.9295 37.63 20.4094 37.3717 20.0263C37.1136 19.643 36.5937 19.5418 36.2104 19.8C31.5271 22.9557 26.3754 25.5453 20.8985 27.4969C11.1669 30.9644 3.84913 31.2231 3.54309 31.2324L3.51281 31.2328C2.99758 31.2328 2.58166 30.829 2.56607 30.3135C2.55026 29.7913 2.96218 29.3534 3.48453 29.337C3.55756 29.3347 10.905 29.065 20.3877 25.6656C28.332 22.8177 39.7469 17.0027 49.0131 5.47316C49.4744 4.89915 48.9867 4.02756 48.2574 4.11896L45.573 4.45451C45.1077 4.51206 44.6557 4.20714 44.5376 3.75269C44.3955 3.20585 44.7776 2.64298 45.3376 2.57284L52.4767 1.68043C53.0341 1.60996 53.5422 2.06051 53.5422 2.62127V9.76018C53.5422 10.283 53.117 10.7084 52.594 10.7084C52.0711 10.7084 51.6459 10.2831 51.6459 9.76018V7.59596C51.6459 7.25408 51.4248 6.93434 51.105 6.81355C50.7747 6.68875 50.3844 6.79351 50.1611 7.06693C47.0364 10.8956 43.4786 14.3601 39.5862 17.3642C39.2205 17.6466 39.1527 18.1719 39.4351 18.5377C39.7174 18.9036 40.243 18.9711 40.6086 18.6889C43.9991 16.0722 47.1419 13.1152 49.9754 9.8783C50.0373 11.2691 51.1882 12.3817 52.5942 12.3817C54.0395 12.3817 55.2155 11.2058 55.2155 9.76041V2.62149C55.2154 1.87003 54.8923 1.15363 54.329 0.656326Z" fill="#EBC26E"/>
</svg>
