<svg width="57" height="57" viewBox="0 0 57 57" fill="none" xmlns="http://www.w3.org/2000/svg">
<path d="M19.2093 43.6263C19.1948 43.5551 19.1737 43.4849 19.1459 43.417C19.118 43.3502 19.0835 43.2857 19.0434 43.2256C19.0034 43.1643 18.9566 43.1076 18.9054 43.0563C18.8542 43.0051 18.7974 42.9584 18.7362 42.9183C18.6761 42.8782 18.6115 42.8437 18.5436 42.8159C18.4768 42.788 18.4067 42.7658 18.3354 42.7524C18.1918 42.7235 18.0437 42.7235 17.9012 42.7524C17.83 42.7658 17.7599 42.788 17.6919 42.8159C17.6252 42.8437 17.5606 42.8782 17.5005 42.9183C17.4392 42.9584 17.3825 43.0051 17.3313 43.0563C17.28 43.1076 17.2333 43.1643 17.1932 43.2256C17.152 43.2857 17.1186 43.3502 17.0908 43.417C17.063 43.4849 17.0407 43.5551 17.0273 43.6263C17.0129 43.6976 17.0051 43.7711 17.0051 43.8434C17.0051 43.9158 17.0129 43.9893 17.0273 44.0605C17.0407 44.1318 17.063 44.2019 17.0908 44.2687C17.1186 44.3366 17.152 44.4012 17.1932 44.4613C17.2333 44.5225 17.28 44.5793 17.3313 44.6305C17.3825 44.6817 17.4392 44.7285 17.5005 44.7685C17.5606 44.8087 17.6252 44.8432 17.6919 44.8711C17.7599 44.8989 17.83 44.9212 17.9012 44.9345C17.9725 44.949 18.046 44.9568 18.1183 44.9568C18.1907 44.9568 18.2642 44.949 18.3354 44.9345C18.4067 44.9212 18.4768 44.8989 18.5436 44.8711C18.6115 44.8432 18.6761 44.8086 18.7362 44.7685C18.7974 44.7285 18.8542 44.6817 18.9054 44.6305C18.9566 44.5793 19.0034 44.5225 19.0434 44.4613C19.0835 44.4012 19.118 44.3366 19.1459 44.2687C19.1737 44.2019 19.1948 44.1318 19.2093 44.0605C19.2238 43.9893 19.2316 43.9158 19.2316 43.8434C19.2316 43.7711 19.2238 43.6976 19.2093 43.6263Z" fill="#EBC26E"/>
<path d="M51.2092 43.9691C51.2049 43.958 51.2004 43.947 51.1957 43.9361C50.1711 41.5385 47.768 40.6523 44.9241 41.6236L37.1682 43.7684C36.7198 42.4105 35.6013 41.2549 34.0198 40.668C34.01 40.6644 34.0002 40.6609 33.9903 40.6575L25.4648 37.7639C24.7552 36.8467 22.5325 34.4998 18.3708 34.4998C15.4624 34.4998 12.8896 36.4949 11.4176 38.6697H1.11326C0.498407 38.6697 0 39.1681 0 39.783V53.8186C0 54.4335 0.498407 54.9319 1.11326 54.9319H7.73237C8.34723 54.9319 8.84563 54.4335 8.84563 53.8186V52.8574H11.9497C12.5646 52.8574 13.063 52.359 13.063 51.7442V51.4238C14.8725 51.5816 15.4676 51.9248 17.1295 52.8831C18.4075 53.6201 20.3392 54.7339 23.8176 56.2979C23.8338 56.3052 23.8502 56.3121 23.8665 56.3185C24.5341 56.5812 25.8392 56.9937 27.4482 56.9937C28.5682 56.9937 29.8356 56.7937 31.1366 56.204L48.2798 50.0659C48.3103 50.055 48.3403 50.0428 48.3697 50.0292C50.0081 49.2754 52.4496 47.151 51.2092 43.9691ZM6.61911 52.7052H2.22652V40.8961H6.61911V52.7052ZM10.8365 50.6308H8.84563V40.8961H10.8365V50.6308ZM47.4801 47.9871L30.3446 54.1224C30.3296 54.1278 30.3092 54.1358 30.2944 54.1418C30.2793 54.1479 30.2643 54.1544 30.2495 54.1612C27.863 55.2579 25.5945 54.6013 24.7055 54.2557C21.3454 52.7438 19.5521 51.7096 18.2418 50.9541C16.42 49.9036 15.5422 49.3973 13.063 49.1926V40.2261C14.1183 38.4966 16.1647 36.7262 18.3709 36.7262C22.1544 36.7262 23.7576 39.187 23.8207 39.2863C23.9566 39.5074 24.1655 39.6741 24.4112 39.7575L33.2589 42.7604C34.6719 43.2907 35.4187 44.5008 35.0755 45.7076C34.9171 46.2649 34.551 46.7271 34.0449 47.0091C33.5432 47.2887 32.9632 47.3578 32.4103 47.2048L22.4363 44.0441C21.8498 43.8583 21.2244 44.1829 21.0387 44.769C20.8529 45.3552 21.1776 45.9808 21.7637 46.1666L31.7551 49.3328C31.7657 49.3362 31.7762 49.3394 31.7869 49.3424C32.1858 49.4559 32.5919 49.512 32.9956 49.512C33.7346 49.512 34.4654 49.3237 35.1287 48.9541C36.1544 48.3827 36.896 47.446 37.2171 46.3166C37.2427 46.2264 37.2654 46.1362 37.2851 46.046L45.6438 43.7305C46.851 43.3181 48.4357 43.1695 49.1413 44.7945C49.8716 46.7023 47.9735 47.7518 47.4801 47.9871Z" fill="#EBC26E"/>
<path d="M39.9727 14.6415C39.9582 14.5702 39.9371 14.5001 39.9081 14.4322C39.8803 14.3654 39.8469 14.3008 39.8057 14.2407C39.7656 14.1795 39.7189 14.1227 39.6677 14.0715C39.6165 14.0203 39.5597 13.9735 39.4985 13.9334C39.4383 13.8934 39.3738 13.8588 39.307 13.831C39.2391 13.8032 39.1689 13.7809 39.0988 13.7676C38.9552 13.7386 38.8071 13.7386 38.6635 13.7676C38.5923 13.7809 38.5221 13.8032 38.4553 13.831C38.3874 13.8588 38.3229 13.8934 38.2627 13.9334C38.2015 13.9735 38.1447 14.0203 38.0935 14.0715C38.0423 14.1227 37.9956 14.1795 37.9555 14.2407C37.9154 14.3008 37.8809 14.3654 37.8531 14.4322C37.8252 14.5001 37.803 14.5702 37.7896 14.6415C37.7751 14.7127 37.7673 14.7862 37.7673 14.8586C37.7673 14.9309 37.7751 15.0044 37.7896 15.0756C37.803 15.1469 37.8252 15.217 37.8531 15.2838C37.8809 15.3517 37.9154 15.4163 37.9555 15.4764C37.9956 15.5376 38.0423 15.5944 38.0935 15.6456C38.1447 15.6968 38.2015 15.7436 38.2627 15.7837C38.3229 15.8237 38.3874 15.8583 38.4553 15.8861C38.5221 15.9139 38.5923 15.9351 38.6635 15.9495C38.7348 15.964 38.8082 15.9718 38.8806 15.9718C38.953 15.9718 39.0264 15.964 39.0988 15.9495C39.1689 15.9351 39.2391 15.9139 39.307 15.8861C39.3738 15.8583 39.4383 15.8237 39.4985 15.7837C39.5597 15.7436 39.6165 15.6968 39.6677 15.6456C39.7189 15.5944 39.7656 15.5376 39.8057 15.4764C39.8469 15.4163 39.8803 15.3517 39.9081 15.2838C39.9371 15.217 39.9582 15.1469 39.9727 15.0756C39.9872 15.0044 39.9939 14.9309 39.9939 14.8586C39.9939 14.7862 39.9872 14.7127 39.9727 14.6415Z" fill="#EBC26E"/>
<path d="M55.8856 3.77036H49.2665C48.6516 3.77036 48.1532 4.26877 48.1532 4.88362V5.84481H45.0491C44.4343 5.84481 43.9359 6.34322 43.9359 6.95807V7.27847C42.1264 7.1205 41.5312 6.77739 39.8695 5.8191C38.5914 5.08212 36.6598 3.9683 33.1812 2.40428C33.1651 2.39693 33.1488 2.39014 33.1322 2.38369C31.9999 1.93816 29.0323 1.06158 25.8628 2.49802L21.383 4.102L17.6069 0.326046C17.1722 -0.108682 16.4673 -0.108682 16.0326 0.326046L3.63552 12.723C3.23452 13.1241 3.1576 13.8195 3.63552 14.2975L24.8194 35.4814C25.1584 35.8205 25.9522 35.923 26.3939 35.4814L37.7119 24.1635C38.0061 24.1889 38.3115 24.2026 38.628 24.2026C41.5365 24.2026 44.1092 22.2074 45.5811 20.0328H55.8856C56.5005 20.0328 56.9989 19.5344 56.9989 18.9195V4.88362C56.9989 4.26877 56.5005 3.77036 55.8856 3.77036ZM16.8196 2.68761L19.357 5.22495C18.6027 5.6914 17.7307 5.941 16.8196 5.941C15.9084 5.941 15.0365 5.69152 14.2823 5.22495L16.8196 2.68761ZM8.53453 16.0476L5.99719 13.5102L8.53453 10.9728C9.00099 11.7271 9.25058 12.5991 9.25058 13.5102C9.25058 14.4213 9.0011 15.2933 8.53453 16.0476ZM25.6067 33.1197L23.0698 30.5828C24.6187 29.6269 26.5945 29.6269 28.1435 30.5828L25.6067 33.1197ZM29.7475 28.979C27.2874 27.1945 23.926 27.1945 21.4659 28.979L10.1384 17.6514C11.0078 16.4557 11.4771 15.0195 11.4771 13.5102C11.4771 12.0007 11.0079 10.5646 10.1384 9.36895L12.6785 6.82893C13.8742 7.69828 15.3103 8.16763 16.8198 8.16763C18.3292 8.16763 19.7653 7.69828 20.961 6.82893L23.3688 9.23681C22.8493 9.31351 22.3426 9.48473 21.8702 9.74801C21.0722 10.1927 20.4461 10.8585 20.0562 11.664C18.8005 11.8966 17.6379 12.5046 16.7259 13.4164C14.2517 15.8908 14.2517 19.9166 16.726 22.391C17.9631 23.628 19.5881 24.2467 21.2132 24.2467C22.8383 24.2467 24.4634 23.6281 25.7006 22.391C26.5054 21.5861 27.0693 20.5968 27.3517 19.5188L31.1106 20.7945C30.6874 22.7547 31.1208 24.8169 32.2898 26.4367L29.7475 28.979ZM22.9791 18.0342C22.9889 18.0378 22.9987 18.0414 23.0086 18.0447L25.2347 18.8003C25.0666 19.559 24.6862 20.2565 24.1262 20.8166C22.52 22.4226 19.9065 22.4228 18.3005 20.8166C16.6943 19.2105 16.6943 16.5971 18.3005 14.9909C18.6879 14.6033 19.1451 14.3004 19.6433 14.095C19.8488 15.8052 21.0802 17.3295 22.9791 18.0342ZM33.8939 24.8325C33.4642 24.1322 33.2211 23.333 33.1827 22.5173C33.7159 22.9029 34.3676 23.2806 35.146 23.5804L33.8939 24.8325ZM43.9358 18.4756C42.8806 20.2054 40.8342 21.9758 38.628 21.9758C38.2152 21.9758 37.8283 21.9465 37.4666 21.8941C37.4652 21.8939 37.4637 21.8937 37.4623 21.8935C35.0581 21.5442 33.7648 20.1778 33.3385 19.6368C33.3158 19.6034 33.2191 19.4768 33.2047 19.4558C33.075 19.224 32.8624 19.0376 32.5912 18.9455L23.7399 15.9414C22.3274 15.4113 21.5807 14.2017 21.9229 12.9954C21.9232 12.9946 21.9234 12.9938 21.9236 12.9931C21.9239 12.9922 21.9242 12.9912 21.9244 12.9903C22.0835 12.4348 22.4488 11.974 22.9538 11.6927C23.4555 11.4131 24.0353 11.3438 24.5884 11.4971L34.5624 14.6577C35.1487 14.8437 35.7743 14.5189 35.96 13.9328C36.1457 13.3466 35.8212 12.721 35.2351 12.5352L27.3025 10.0214L27.2333 9.95219C27.2326 9.95152 27.232 9.95074 27.2312 9.95007L23.1244 5.84325L26.6543 4.57926C26.6662 4.57492 26.6809 4.56946 26.6927 4.56467C26.6957 4.56345 26.7015 4.56122 26.7044 4.56C26.7195 4.55388 26.7344 4.54742 26.7493 4.54063C29.1356 3.44384 31.404 4.10033 32.2932 4.44611C35.6533 5.95803 37.4468 6.99214 38.7571 7.74771C40.5788 8.79829 41.4566 9.30449 43.9358 9.50922V18.4756V18.4756ZM48.1532 17.806H46.1624V8.07133H48.1532V17.806ZM54.7724 17.806H50.3798V5.99688H54.7724V17.806Z" fill="#EBC26E"/>
</svg>
