<svg width="58" height="58" viewBox="0 0 58 58" fill="none" xmlns="http://www.w3.org/2000/svg">
<path d="M23.7866 56.0666H9.08019C7.77797 56.0666 6.5005 55.7108 5.38577 55.0377C4.27105 54.3645 3.36143 53.3996 2.75518 52.2471C2.14892 51.0946 1.86908 49.7984 1.94587 48.4984C2.02266 47.1984 2.45317 45.9442 3.19089 44.8711L12.1085 31.9H20.7582L28.4452 43.0809L30.0382 41.9857L22.2334 30.6331V27.3888L24.4446 24.4405C24.8903 23.8437 25.1319 23.1191 25.1334 22.3742C25.1333 21.7873 24.9832 21.2101 24.6973 20.6975C24.4115 20.1848 23.9994 19.7538 23.5001 19.4452C23.0008 19.1366 22.4309 18.9608 21.8446 18.9344C21.2582 18.908 20.6748 19.0319 20.1498 19.2943L16.4334 21.1526L12.7169 19.2944C12.1919 19.032 11.6085 18.9081 11.0222 18.9345C10.4358 18.9609 9.86596 19.1368 9.36667 19.4453C8.86738 19.7539 8.45525 20.185 8.16939 20.6976C7.88354 21.2102 7.73345 21.7874 7.73338 22.3744C7.73488 23.1192 7.97641 23.8438 8.42213 24.4406L10.6334 27.3889V30.6332L1.59783 43.7759C0.660461 45.1392 0.113426 46.7328 0.0158175 48.3844C-0.0817912 50.036 0.273737 51.683 1.044 53.1472C1.81425 54.6115 2.96996 55.8375 4.38628 56.6928C5.80259 57.548 7.42567 58 9.08019 58H23.7866C23.9273 58 24.0702 57.9967 24.211 57.9902L24.1224 56.0589C24.0108 56.0641 23.8978 56.0666 23.7866 56.0666V56.0666ZM12.5667 29.9667V28.0333H20.3V29.9667H12.5667ZM9.66671 22.3744C9.66676 22.1169 9.7326 21.8638 9.85797 21.639C9.98334 21.4142 10.1641 21.2251 10.3831 21.0898C10.602 20.9545 10.8519 20.8774 11.1091 20.8658C11.3662 20.8542 11.6221 20.9085 11.8523 21.0236L16.001 23.0979C16.1353 23.165 16.2833 23.2 16.4334 23.2C16.5835 23.2 16.7315 23.165 16.8657 23.0979L21.0144 21.0236C21.2447 20.9085 21.5005 20.8542 21.7577 20.8658C22.0148 20.8774 22.2647 20.9545 22.4837 21.0898C22.7027 21.2251 22.8834 21.4142 23.0088 21.639C23.1341 21.8638 23.2 22.1169 23.2 22.3744C23.1993 22.7011 23.0934 23.0188 22.8979 23.2806L20.7834 26.1H12.0834L9.96879 23.2806C9.77333 23.0188 9.6674 22.7011 9.66671 22.3744V22.3744Z" fill="#EBC26E"/>
<path d="M19.3333 43.5V43.359C19.3326 42.7716 19.1448 42.1998 18.7972 41.7264C18.4496 41.2531 17.9602 40.9027 17.4 40.7262V39.6333H15.4667V40.7262C14.942 40.8908 14.4785 41.2084 14.1356 41.6383C13.7927 42.0681 13.5861 42.5906 13.5422 43.1387C13.4983 43.6869 13.6192 44.2356 13.8894 44.7145C14.1596 45.1934 14.5667 45.5807 15.0585 45.8266L16.9435 46.7691C17.1099 46.8523 17.2433 46.9892 17.3221 47.1576C17.401 47.3261 17.4206 47.5163 17.3779 47.6973C17.3352 47.8783 17.2326 48.0396 17.0867 48.155C16.9409 48.2705 16.7603 48.3333 16.5743 48.3333H16.2923C16.0734 48.3331 15.8635 48.246 15.7087 48.0912C15.5539 47.9364 15.4669 47.7265 15.4667 47.5076V47.3666H13.5333V47.5076C13.534 48.095 13.7218 48.6668 14.0695 49.1402C14.4171 49.6135 14.9065 49.9639 15.4667 50.1404V51.2333H17.4V50.1404C17.9246 49.9758 18.3882 49.6582 18.7311 49.2283C19.0739 48.7985 19.2806 48.276 19.3244 47.7278C19.3683 47.1797 19.2474 46.631 18.9772 46.1521C18.7071 45.6732 18.3 45.2859 17.8082 45.04L15.9232 44.0975C15.7568 44.0143 15.6234 43.8774 15.5445 43.709C15.4657 43.5405 15.446 43.3503 15.4887 43.1693C15.5315 42.9883 15.6341 42.827 15.7799 42.7115C15.9258 42.5961 16.1063 42.5333 16.2923 42.5333H16.5743C16.7932 42.5335 17.0031 42.6206 17.1579 42.7754C17.3127 42.9302 17.3998 43.14 17.4 43.359V43.5H19.3333Z" fill="#EBC26E"/>
<path d="M9.66666 44.4668H11.6V46.4001H9.66666V44.4668Z" fill="#EBC26E"/>
<path d="M21.2666 44.4668H23.2V46.4001H21.2666V44.4668Z" fill="#EBC26E"/>
<path d="M43.5002 47.3668C43.4993 46.5979 43.1935 45.8608 42.6498 45.3171C42.1061 44.7735 41.369 44.4677 40.6002 44.4668H29.0002C28.5269 44.4666 28.0608 44.5822 27.6426 44.8036C27.2244 45.0251 26.8668 45.3455 26.6009 45.7371C26.3351 46.1286 26.1692 46.5792 26.1177 47.0497C26.0663 47.5201 26.1307 47.9959 26.3056 48.4357C25.6918 48.6031 25.1502 48.9677 24.7641 49.4732C24.3779 49.9788 24.1688 50.5973 24.1688 51.2335C24.1688 51.8696 24.3779 52.4881 24.7641 52.9937C25.1502 53.4992 25.6918 53.8638 26.3056 54.0312C26.1307 54.471 26.0663 54.9469 26.1177 55.4173C26.1692 55.8877 26.3351 56.3383 26.6009 56.7299C26.8668 57.1214 27.2244 57.4418 27.6426 57.6633C28.0608 57.8847 28.5269 58.0004 29.0002 58.0001H40.6002C41.3024 57.9997 41.9807 57.7444 42.509 57.2817C43.0372 56.8189 43.3797 56.1803 43.4727 55.4842C43.5657 54.7881 43.4029 54.0819 43.0146 53.4967C42.6264 52.9116 42.0389 52.4872 41.3614 52.3024C41.6349 51.616 41.6349 50.8509 41.3614 50.1646C41.9751 49.9968 42.5167 49.6322 42.9031 49.1268C43.2895 48.6213 43.4992 48.003 43.5002 47.3668V47.3668ZM27.0668 50.2668H38.6668C38.9232 50.2668 39.1691 50.3686 39.3504 50.5499C39.5316 50.7312 39.6335 50.9771 39.6335 51.2335C39.6335 51.4898 39.5316 51.7357 39.3504 51.917C39.1691 52.0983 38.9232 52.2001 38.6668 52.2001H27.0668C26.8104 52.2001 26.5646 52.0983 26.3833 51.917C26.202 51.7357 26.1002 51.4898 26.1002 51.2335C26.1002 50.9771 26.202 50.7312 26.3833 50.5499C26.5646 50.3686 26.8104 50.2668 27.0668 50.2668ZM40.6002 56.0668H29.0002C28.7438 56.0668 28.4979 55.9649 28.3166 55.7837C28.1353 55.6024 28.0335 55.3565 28.0335 55.1001C28.0335 54.8438 28.1353 54.5979 28.3166 54.4166C28.4979 54.2353 28.7438 54.1335 29.0002 54.1335H40.6002C40.8565 54.1335 41.1024 54.2353 41.2837 54.4166C41.465 54.5979 41.5668 54.8438 41.5668 55.1001C41.5668 55.3565 41.465 55.6024 41.2837 55.7837C41.1024 55.9649 40.8565 56.0668 40.6002 56.0668ZM40.6002 48.3335H29.0002C28.7438 48.3335 28.4979 48.2316 28.3166 48.0503C28.1353 47.869 28.0335 47.6232 28.0335 47.3668C28.0335 47.1104 28.1353 46.8645 28.3166 46.6833C28.4979 46.502 28.7438 46.4001 29.0002 46.4001H40.6002C40.8565 46.4001 41.1024 46.502 41.2837 46.6833C41.465 46.8645 41.5668 47.1104 41.5668 47.3668C41.5668 47.6232 41.465 47.869 41.2837 48.0503C41.1024 48.2316 40.8565 48.3335 40.6002 48.3335Z" fill="#EBC26E"/>
<path d="M40.3904 9.64374L48.3334 11.4087V20.3H50.2667V10.6334C50.2667 10.4134 50.1917 10.2 50.0541 10.0284C49.9164 9.85686 49.7244 9.73736 49.5097 9.68965L48.3334 9.42829V5.80003H46.4V8.99861L44.4667 8.56905V3.8667H42.5334V8.13936L40.8097 7.75632L40.3904 9.64374Z" fill="#EBC26E"/>
<path d="M19.3333 7.7334H23.2V9.66673H19.3333V7.7334Z" fill="#EBC26E"/>
<path d="M25.1333 7.7334H29V9.66673H25.1333V7.7334Z" fill="#EBC26E"/>
<path d="M30.9333 7.7334H34.8V9.66673H30.9333V7.7334Z" fill="#EBC26E"/>
<path d="M19.3333 11.6001H23.2V13.5334H19.3333V11.6001Z" fill="#EBC26E"/>
<path d="M25.1333 11.6001H29V13.5334H25.1333V11.6001Z" fill="#EBC26E"/>
<path d="M30.9333 11.6001H34.8V13.5334H30.9333V11.6001Z" fill="#EBC26E"/>
<path d="M25.1333 15.4668H29V17.4001H25.1333V15.4668Z" fill="#EBC26E"/>
<path d="M19.3333 15.4668H23.2V17.4001H19.3333V15.4668Z" fill="#EBC26E"/>
<path d="M30.9333 15.4668H34.8V17.4001H30.9333V15.4668Z" fill="#EBC26E"/>
<path d="M27.0667 19.3333H29V21.2666H27.0667V19.3333Z" fill="#EBC26E"/>
<path d="M30.9333 19.3333H34.8V21.2666H30.9333V19.3333Z" fill="#EBC26E"/>
<path d="M27.0667 23.2H29V25.1333H27.0667V23.2Z" fill="#EBC26E"/>
<path d="M30.9333 23.2H34.8V25.1333H30.9333V23.2Z" fill="#EBC26E"/>
<path d="M27.0667 27.0667H29V29H27.0667V27.0667Z" fill="#EBC26E"/>
<path d="M30.9333 27.0667H34.8V29H30.9333V27.0667Z" fill="#EBC26E"/>
<path d="M27.0667 30.9333H29V32.8667H27.0667V30.9333Z" fill="#EBC26E"/>
<path d="M30.9333 30.9333H34.8V32.8667H30.9333V30.9333Z" fill="#EBC26E"/>
<path d="M30.9333 34.8H34.8V36.7334H30.9333V34.8Z" fill="#EBC26E"/>
<path d="M47.3666 27.0667H51.2333V29H47.3666V27.0667Z" fill="#EBC26E"/>
<path d="M47.3666 30.9333H51.2333V32.8667H47.3666V30.9333Z" fill="#EBC26E"/>
<path d="M47.3666 34.8H51.2333V36.7334H47.3666V34.8Z" fill="#EBC26E"/>
<path d="M47.3666 38.6667H51.2333V40.6001H47.3666V38.6667Z" fill="#EBC26E"/>
<path d="M47.3666 42.5334H51.2333V44.4668H47.3666V42.5334Z" fill="#EBC26E"/>
<path d="M47.3666 46.3999H51.2333V48.3332H47.3666V46.3999Z" fill="#EBC26E"/>
<path d="M47.3666 50.2666H51.2333V52.1999H47.3666V50.2666Z" fill="#EBC26E"/>
<path d="M41.5666 27.0667H45.4333V29H41.5666V27.0667Z" fill="#EBC26E"/>
<path d="M41.5666 30.9333H45.4333V32.8667H41.5666V30.9333Z" fill="#EBC26E"/>
<path d="M41.5666 34.8H45.4333V36.7334H41.5666V34.8Z" fill="#EBC26E"/>
<path d="M41.5666 38.6667H45.4333V40.6001H41.5666V38.6667Z" fill="#EBC26E"/>
<path d="M14.5 5.79999H15.4667V18.3667H17.4V5.79999H36.7333V42.5333H38.6666V5.79999H39.6333C39.8897 5.79999 40.1356 5.69815 40.3168 5.51686C40.4981 5.33558 40.6 5.0897 40.6 4.83333V0.966666C40.6 0.71029 40.4981 0.464415 40.3168 0.28313C40.1356 0.101845 39.8897 0 39.6333 0H14.5C14.2436 0 13.9977 0.101845 13.8165 0.28313C13.6352 0.464415 13.5333 0.71029 13.5333 0.966666V4.83333C13.5333 5.0897 13.6352 5.33558 13.8165 5.51686C13.9977 5.69815 14.2436 5.79999 14.5 5.79999ZM15.4667 1.93333H38.6666V3.86666H15.4667V1.93333Z" fill="#EBC26E"/>
<path d="M55.0999 56.0667V23.2001C55.0999 22.9437 54.9981 22.6978 54.8168 22.5165C54.6355 22.3352 54.3897 22.2334 54.1333 22.2334H40.6V24.1667H53.1666V56.0667H44.4666V58H57.9999V56.0667H55.0999Z" fill="#EBC26E"/>
<path d="M44.4666 17.4001H46.4V19.3335H44.4666V17.4001Z" fill="#EBC26E"/>
<path d="M40.6 17.4001H42.5333V19.3335H40.6V17.4001Z" fill="#EBC26E"/>
<path d="M44.4666 13.5334H46.4V15.4668H44.4666V13.5334Z" fill="#EBC26E"/>
<path d="M40.6 13.5334H42.5333V15.4668H40.6V13.5334Z" fill="#EBC26E"/>
</svg>
